<?xml version="1.0" encoding="utf-8"?>
<!-- Generator: Adobe Illustrator 16.0.0, SVG Export Plug-In . SVG Version: 6.00 Build 0)  -->
<!DOCTYPE svg PUBLIC "-//W3C//DTD SVG 1.1//EN" "http://www.w3.org/Graphics/SVG/1.1/DTD/svg11.dtd">
<svg version="1.1" id="Layer_1" xmlns="http://www.w3.org/2000/svg" xmlns:xlink="http://www.w3.org/1999/xlink" x="0px" y="0px"
	 width="100px" height="100px" viewBox="0 0 100 100" enable-background="new 0 0 100 100" xml:space="preserve">
<path fill="#FFFFFF" d="M48.223,40.414h-1.168v-5.521h-2.092v-1.073h5.352v1.073h-2.091V40.414z M57.327,40.414l-1.781-2.496
	c0.924-0.255,1.574-0.914,1.574-2.008c0-1.29-0.934-2.092-2.451-2.092h-2.939v6.596h1.16v-2.299h1.451l1.619,2.299H57.327z
	 M54.575,34.874c0.857,0,1.367,0.376,1.367,1.103c0,0.679-0.527,1.111-1.357,1.111h-1.695v-2.214H54.575 M63.622,33.818h-4.891
	v6.596h4.939v-1.035h-3.779v-1.772h3.307V36.57h-3.307v-1.715h3.73V33.818z M67.78,36.59c-1.264-0.303-1.564-0.528-1.564-1.047
	c0-0.443,0.396-0.791,1.074-0.791c0.604,0,1.195,0.234,1.789,0.678l0.623-0.877c-0.67-0.536-1.434-0.828-2.395-0.828
	c-1.309,0-2.25,0.773-2.25,1.923c0,1.224,0.791,1.64,2.195,1.978c1.225,0.283,1.488,0.538,1.488,1.019
	c0,0.508-0.453,0.839-1.168,0.839c-0.82,0-1.451-0.312-2.084-0.857l-0.697,0.828c0.791,0.707,1.744,1.056,2.752,1.056
	c1.385,0,2.355-0.735,2.355-1.979C69.899,37.428,69.172,36.928,67.78,36.59 M48.231,44.755h2.092v-1.073h-5.352v1.073h2.092v5.521
	h1.168V44.755z M57.325,50.275l-1.781-2.496c0.924-0.254,1.574-0.914,1.574-2.008c0-1.289-0.934-2.092-2.451-2.092h-2.939v6.596
	h1.16v-2.299h1.451l1.619,2.299H57.325z M54.573,44.736c0.857,0,1.367,0.376,1.367,1.102c0,0.679-0.529,1.111-1.357,1.111h-1.695
	v-2.213H54.573 M59.956,43.682h-1.16v6.594h1.16V43.682z M64.45,46.451c-1.262-0.303-1.564-0.528-1.564-1.046
	c0-0.443,0.396-0.792,1.076-0.792c0.602,0,1.195,0.234,1.789,0.678l0.621-0.876c-0.668-0.537-1.432-0.829-2.393-0.829
	c-1.311,0-2.252,0.773-2.252,1.923c0,1.224,0.791,1.64,2.195,1.978c1.225,0.283,1.488,0.539,1.488,1.019
	c0,0.508-0.451,0.839-1.168,0.839c-0.82,0-1.451-0.312-2.082-0.857l-0.697,0.828c0.791,0.707,1.744,1.057,2.752,1.057
	c1.385,0,2.355-0.736,2.355-1.98C66.571,47.289,65.844,46.789,64.45,46.451 M70.774,44.755h2.092v-1.073h-5.352v1.073h2.092v5.521
	h1.168V44.755z M79.163,43.68h-4.891v6.596h4.938V49.24H75.43v-1.772h3.307v-1.036H75.43v-1.715h3.732V43.68z M83.309,46.451
	c-1.262-0.303-1.564-0.528-1.564-1.046c0-0.443,0.396-0.792,1.074-0.792c0.604,0,1.197,0.234,1.791,0.678l0.621-0.876
	c-0.67-0.537-1.432-0.829-2.393-0.829c-1.309,0-2.252,0.773-2.252,1.923c0,1.224,0.791,1.64,2.195,1.978
	c1.225,0.283,1.488,0.539,1.488,1.019c0,0.508-0.453,0.839-1.168,0.839c-0.82,0-1.451-0.312-2.082-0.857l-0.697,0.828
	c0.791,0.707,1.742,1.057,2.75,1.057c1.385,0,2.357-0.736,2.357-1.98C85.43,47.289,84.704,46.789,83.309,46.451 M48.242,55.057
	h2.091v-1.074h-5.352v1.074h2.092v5.521h1.168V55.057z M52.963,53.982h-1.158v6.595h1.158V53.982z M58.043,60.691
	c1.168,0,2.102-0.472,2.75-1.027v-2.77h-2.807v1.008h1.688v1.234c-0.406,0.301-0.973,0.498-1.594,0.498
	c-1.348,0-2.242-0.998-2.242-2.364c0-1.282,0.924-2.337,2.139-2.337c0.838,0,1.338,0.273,1.848,0.707l0.734-0.877
	c-0.678-0.575-1.387-0.895-2.535-0.895c-1.988,0-3.402,1.563-3.402,3.42C54.622,59.221,55.979,60.691,58.043,60.691 M68.079,60.577
	l-1.779-2.496c0.924-0.255,1.574-0.915,1.574-2.009c0-1.289-0.934-2.091-2.451-2.091h-2.939v6.596h1.158v-2.299h1.451l1.621,2.299
	H68.079z M65.329,55.037c0.857,0,1.367,0.377,1.367,1.104c0,0.678-0.529,1.111-1.357,1.111h-1.697v-2.215H65.329 M74.375,53.981
	h-4.891v6.596h4.938v-1.036h-3.777V57.77h3.307v-1.036h-3.307v-1.716h3.73V53.981z M78.524,56.752
	c-1.264-0.301-1.564-0.527-1.564-1.045c0-0.443,0.395-0.793,1.074-0.793c0.602,0,1.195,0.236,1.789,0.679l0.623-0.876
	c-0.67-0.537-1.432-0.829-2.395-0.829c-1.309,0-2.252,0.772-2.252,1.923c0,1.224,0.793,1.639,2.195,1.979
	c1.227,0.282,1.49,0.537,1.49,1.018c0,0.508-0.453,0.838-1.168,0.838c-0.82,0-1.451-0.311-2.084-0.857l-0.697,0.829
	c0.793,0.707,1.744,1.056,2.752,1.056c1.385,0,2.355-0.734,2.355-1.979C80.643,57.592,79.917,57.092,78.524,56.752 M46.452,66.164
	c0.862,0,1.613-0.447,1.613-1.316v-0.012c0-0.797-0.626-1.264-1.535-1.264h-1.5v4.135h0.308v-1.543H46.452 M47.757,64.865
	c0,0.615-0.519,1.016-1.286,1.016h-1.134v-2.025h1.169c0.743,0,1.25,0.343,1.25,0.998V64.865z M52.137,67.771
	c1.004,0,1.695-0.632,1.695-1.818v-2.381h-0.307v2.414c0,1-0.537,1.508-1.377,1.508c-0.873,0-1.399-0.562-1.399-1.536v-2.386h-0.306
	v2.414C50.444,67.145,51.146,67.771,52.137,67.771 M58.319,67.705c0.893,0,1.482-0.436,1.482-1.127v-0.012
	c0-0.572-0.438-0.857-0.934-0.986c0.336-0.135,0.703-0.418,0.703-0.98v-0.012c0-0.62-0.537-1.016-1.34-1.016h-1.707v4.133H58.319
	 M59.258,64.629c0,0.549-0.443,0.852-1.062,0.852h-1.365v-1.625h1.395c0.66,0,1.033,0.309,1.033,0.763V64.629z M59.489,66.578
	c0,0.52-0.449,0.845-1.158,0.845h-1.5v-1.659h1.4c0.814,0,1.258,0.295,1.258,0.803V66.578z M65.055,67.705v-0.282h-2.428v-3.851
	h-0.307v4.133H65.055z M67.551,67.705h0.307v-4.133h-0.307V67.705z M72.534,67.777c0.732,0,1.205-0.29,1.643-0.721l-0.207-0.201
	c-0.42,0.414-0.826,0.645-1.424,0.645c-0.984,0-1.746-0.816-1.746-1.86v-0.013c0-1.039,0.748-1.848,1.742-1.848
	c0.619,0,1.031,0.26,1.393,0.608l0.219-0.226c-0.426-0.389-0.869-0.66-1.607-0.66c-1.191,0-2.066,0.968-2.066,2.138v0.011
	C70.479,66.838,71.354,67.777,72.534,67.777 M76.594,67.705h0.309v-4.133h-0.309V67.705z M81.083,67.705
	c1.299,0,2.195-0.902,2.195-2.065v-0.013c0-1.162-0.896-2.055-2.195-2.055h-1.375v4.133H81.083 M82.959,65.65
	c0,0.986-0.727,1.772-1.877,1.772h-1.068v-3.567h1.068c1.15,0,1.877,0.804,1.877,1.784V65.65z M89.377,67.707l-1.926-4.164h-0.295
	l-1.924,4.164h0.318l0.525-1.158h2.439l0.523,1.158H89.377z M88.385,66.271h-2.178l1.092-2.393L88.385,66.271z M93.155,67.705
	c1.299,0,2.195-0.902,2.195-2.065v-0.013c0-1.162-0.896-2.055-2.195-2.055H91.78v4.133H93.155 M95.032,65.65
	c0,0.986-0.725,1.772-1.877,1.772h-1.068v-3.567h1.068c1.152,0,1.877,0.804,1.877,1.784V65.65z M48.344,88.041
	c-2.153,0.053-4.181,2.426-6.272,2.352c-2.09-0.074-8.772-2.875-8.772-2.875c-1.506-0.486-3.146-1.412-3.4-1.73
	c-0.314-0.389-4.031-7.764-4.031-7.764c-0.369-0.336-1.742-4.928-1.742-4.928l-3.749-4.654c-0.224-0.971-1.369-0.871-1.369-0.871
	s-7.508-8.254-8.192-9.046c-0.594-0.688-4.025-13.868-4.025-13.868c-0.269-1.068,2.997-5.979-1.01-8.958
	c-1.116-0.831-2.334-3.903,1.307-6.085c0.883-0.531,2.708-2.492,4.442-3.316c1.733-0.824,6.024-10.361,8.259-10.885
	c2.235-0.521,12.111-3.65,12.796-3.706s2.24-1.568,2.24-1.568c1.642-0.621,5.873-0.397,6.595-0.522
	c0.547-0.094,3.871,0.68,5.448,1.059l0.009,0.002c0.498,0.121,0.82,0.201,0.82,0.201v0.016l0.342,0.091l-0.874,1.643
	c-0.447,0.49-1.046,1.106-1.241,1.106c-0.324,0-4.106-0.299-4.928-0.273s-1.22,1.021-1.22,1.021l-0.448,1.724
	c0,0-10.146,4.445-11.553,4.703c-1.408,0.258-4.773,7.391-3.994,8.064c0.778,0.671,2.576,1.754,2.576,1.754s3.825-5.951,4.598-6.353
	c0.646-0.337,8.549-2.987,8.549-2.987c3.994-0.664,6.159-5.803,6.346-5.443c0.181,0.348-2.297,6.764-2.701,7.591
	c-0.286,0.585,2.053-0.112,2.364-0.497c0.727-0.902,2.283-5.182,2.321-5.279c0.038-0.096,0.188-0.303,0.206-0.035
	c0.019,0.269,0,4.586,0,4.586s-1.164,2.352-1.668,2.737c-0.503,0.386-2.697,2.149-3.434,2.669c-0.738,0.52-1.381,2.657-1.089,2.75
	c0.294,0.094,2.314-1.787,2.091-1.344c-0.125,0.248-4.549,7.129-4.549,7.129s0.778-2.991,0.163-2.926
	c-0.131,0.016-1.152,1.042-1.363,1.061c-0.21,0.02,6.166-9.936,6.166-9.936l-4.71,0.453c0,0-4.902,4.368-5.488,4.891
	c-0.585,0.521-0.789,3.414-0.483,3.575c0.306,0.161,1.201,0.472,1.571,0.825c0.421,0.4,7.386,8.814,3.392,4.783
	c-3.995-4.032-6.604-4.953-7.243-5.077c-0.64-0.124-4.885-0.249-5.301-0.337c-0.416-0.086-3.622-1.791-3.622-1.791
	s-0.61,2.651-0.298,3.396c0.312,0.747,2.07,2.453,2.576,2.539c0.505,0.088,6.401,0.598,7.056,0.859
	c0.654,0.26,3.136,2.986,3.136,2.986s3.541,5.256,3.696,5.487c0.155,0.231,0,0.635,0,0.635c-3.999-3.761-4.139-3.369-4.335-3.248
	c-0.196,0.122-1.899,1.456-1.899,1.456c-0.523,0.262,2.314,4.219,2.314,4.219c0.821,1.754-1.232,7.055-1.232,7.055
	s0.844,10.366-0.5,12.308c-0.556,0.804-6.764,3.084-6.816,3.235c-0.118,0.338,0.06,0.604,0.358,0.823
	c3.847,2.835,14.318,5.298,14.318,5.298c-5.475,0.274-14.232-4.168-14.863-4.441c-0.149-0.064,0.547,1.526,0.858,2.129
	c0.836,1.613,17.434,5.785,17.434,5.785c-7.54,0.037-16.275-3.584-16.275-3.584c-0.188,0.111,0.858,2.166,0.858,2.166
	c5.002,2.986,13.029,4.33,13.029,4.33c-3.696,0.447-11.872-2.426-11.872-2.426c-0.223,0.074,1.195,2.352,1.195,2.352
	c1.157,1.381,8.884,4.145,10.751,4.145c1.867,0,5.754-2.393,6.422-2.838C48.769,86.176,48.797,88.029,48.344,88.041z M27.046,31.041
	c0,0,0.579,0.99,4.723,1.736c0,0,0.562-2.676,1.139-3.564c0.576-0.891,6.486-5.73,6.486-5.73s-6.468,2.053-7.545,2.276
	C30.772,25.982,27.046,31.041,27.046,31.041z M27.103,40.841c0,0.386,0.634,1.47,0.933,1.941c0.284,0.45,1.723,1.493,2.278,1.493
	c0.554,0,1.673,0.075,1.979,0c0.305-0.076,1.131-0.622,1.325-0.896c0.193-0.272,0.467-1.512,0.467-1.512l-2.389-1.922l-0.112,1.307
	l-0.989,1.045c0,0-1.698-0.933-0.877-2.838h-2.612C27.103,39.459,27.103,40.455,27.103,40.841z M24.265,39.459
	c0,0-1.254,1.255-1.53,1.531c-0.277,0.275,0.018,3.721,0.374,4.031c0.355,0.311,5.502,4.238,7.484,4.668c0,0-0.615,0.191-1.325,0
	c-0.451-0.122,3.99,5.557,4.032,5.562c0.186,0.022-2.874-8.623-2.874-8.623s-2.963-2.458-4.331-3.136
	C24.727,42.813,24.825,39.534,24.265,39.459z M27.024,52.836c0.149,0.387-6.158-0.373-7.706-1.543
	c-0.201-0.15,0.916,1.693,1.613,2.515c0.697,0.821,2.912,3.958,3.759,4.106c0,0,0.478,0.902,7.066-3.531
	c0,0,0.005-0.002,0.125-0.078c0.254-0.164-3.873-4.57-4.628-5.325l-4.517-2.142c0,0-2.09-2.787-2.496-2.75
	c-0.407,0.039-2.184,2.625-2.365,2.924C17.277,48.01,23.848,52.364,27.024,52.836z M15.223,46.217
	c-0.833,1.617,0.723,5.836,1.432,8.785c0,0,6.83,7.969,6.919,8.039c0.154,0.121,0.571-2.34,0.571-2.34s-3.658-2.265-3.958-2.613
	c-0.3-0.349-1.605-4.667-2.015-4.891c0,0-1.957-2.277-2.198-2.464c-0.297-0.229,1.152-4.181,1.152-4.181s3.067-5.6,3.472-5.936
	s3.211-1.568,3.211-1.568s-0.954-1.555-1.381-1.232C22.428,37.816,16.685,43.373,15.223,46.217z M32.09,68.454
	c1.194-1.457-0.203-9.041,1.004-12.46c0,0,0.143-0.214-0.234-0.688c-0.042-0.055-0.558-0.681-0.703-0.597
	c-6.542,3.714-7.893,9.409-8.091,9.985c-0.079,0.23-0.156,0.455-0.414,0.185s-7.818-8.919-7.818-8.919
	c-0.228-0.178-2.198-7.84-2.035-8.307c0.289-0.828,1.154-3.09,2.019-5.975c0.414-1.383,2.302-2.996,2.576-3.258
	c0.874-0.842,0.833-1.207,0.503-1.146c-0.466,0.086-1.14-0.111-1.438-0.317c-0.071-0.049,2.171-2.53,2.072-2.537
	c-0.047-0.005,0.677-2.2-0.038-1.677c-1.317,0.961-2.853,2.383-3.25,3.021c-0.189,0.304-0.273,0.508-0.309,0.619
	c0.252-0.988,1.179-3.107,1.1-3.072c-2.45,1.084-3.099,2.857-3.108,2.695c-0.009-0.169,1.199-3.33,1.55-3.821
	c0.326-0.458,1.292-1.067,1.466-1.233c0.505-0.486,0.611-1.098,0.573-1.088c-0.201,0.055-1.861,1.256-2.7,1.74
	c-0.406,0.234-4.792,1.977-3.873,3.82c0.356,0.711,3.477,2.18,3.175,2.766c-0.12,0.232,2.295-0.627,2.078-0.387
	c-0.472,0.521-1.475,0.548-2.314,1.618c-0.269,0.343-0.979,3.731-1.672,6.321c-0.332,1.238,2.215,10.975,2.215,10.975
	c1.817,2.49,6.789,7.361,7.441,8.221c0.654,0.857,3.255,4.896,3.457,5.854C25.657,72.398,31.476,69.203,32.09,68.454z
	 M41.275,70.941c0,0-1.718-0.036-2.875,1.346l-0.709-0.672l-0.336-2.128l-0.522,2.687c0,0-0.118,1.967,3.117,3.51
	c2.658,1.268,6.104,4.518,5.507,5.898c-0.598,1.381,1.887,2.428,2.079,2.49c0.19,0.062,0.323,0.084,0.497,0.049
	s0.403-1.387-0.275-1.365c-0.614-0.061-1.083-0.418-1.48-1.211s-0.747-3.752-3.939-5.842c-1.805-1.184-3.017-1.938-2.605-2.667
	c0,0,0.285-1.086,2.013-1.086c1.457,0,5.391,1.905,6.287,1.905c0,0,0.598-1.072,0-1.271S44.039,71.203,41.275,70.941z"/>
</svg>
