<?xml version="1.0" encoding="utf-8"?>
<!-- Generator: Adobe Illustrator 19.0.0, SVG Export Plug-In . SVG Version: 6.00 Build 0)  -->
<svg version="1.1" id="Layer_1" xmlns="http://www.w3.org/2000/svg" xmlns:xlink="http://www.w3.org/1999/xlink" x="0px" y="0px"
	 viewBox="0 0 42.5 42.5" style="enable-background:new 0 0 42.5 42.5;" xml:space="preserve">
<style type="text/css">
	.st0{fill:#FFFFFF;}
</style>
<g>
	<g>
		<g>
			<path id="XMLID_33_" class="st0" d="M21.2,25.3c2.2,0,4-1.8,4-4c0-0.9-0.3-1.7-0.8-2.4c-0.7-1-1.9-1.7-3.3-1.7
				c-1.3,0-2.5,0.7-3.3,1.7c-0.5,0.7-0.8,1.5-0.8,2.4C17.2,23.5,19,25.3,21.2,25.3z"/>
			<polygon id="XMLID_32_" class="st0" points="30.1,16.3 30.1,12.9 30.1,12.4 29.6,12.4 26.2,12.4 26.2,16.3 			"/>
			<path class="st0" d="M21.2,1.1c-11.1,0-20.2,9-20.2,20.2c0,11.1,9,20.2,20.2,20.2s20.2-9,20.2-20.2C41.4,10.1,32.4,1.1,21.2,1.1z
				 M32.7,18.9v9.4c0,2.4-2,4.4-4.4,4.4H14.2c-2.4,0-4.4-2-4.4-4.4v-9.4v-4.7c0-2.4,2-4.4,4.4-4.4h14.1c2.4,0,4.4,2,4.4,4.4V18.9z"
				/>
			<path id="XMLID_29_" class="st0" d="M27.5,21.2c0,3.5-2.8,6.3-6.3,6.3S15,24.7,15,21.2c0-0.8,0.2-1.6,0.5-2.4H12v9.4
				c0,1.2,1,2.2,2.2,2.2h14.1c1.2,0,2.2-1,2.2-2.2v-9.4h-3.4C27.4,19.6,27.5,20.4,27.5,21.2z"/>
		</g>
	</g>
</g>
</svg>
