<?xml version="1.0" encoding="utf-8"?>
<!-- Generator: Adobe Illustrator 19.0.0, SVG Export Plug-In . SVG Version: 6.00 Build 0)  -->
<svg version="1.1" id="Layer_1" xmlns="http://www.w3.org/2000/svg" xmlns:xlink="http://www.w3.org/1999/xlink" x="0px" y="0px"
	 viewBox="0 0 25 25" style="enable-background:new 0 0 25 25;" xml:space="preserve">
<style type="text/css">
	.st0{fill:#0D1D2B;}
</style>
<g id="XMLID_2_">
	<path id="XMLID_5_" class="st0" d="M7.7,4.1c0.6-0.4,1-0.6,1.4-0.5c0.4,0.1,0.8,0.4,1.2,1c1.2,1.6,1.1,2.9-0.1,3.9L9.9,8.7
		c-0.1-1.2-0.5-2.2-1.1-3C8.4,5.2,7.9,4.8,7.3,4.3L7.7,4.1z"/>
	<path id="XMLID_4_" class="st0" d="M15.2,21.5c-1.1-0.8-2.2-1.6-3.3-2.7c-1-1-2-2.2-2.9-3.5c-0.9-1.3-1.7-2.5-2.3-3.9
		c-0.6-1.3-1.1-2.6-1.5-4c0.5-1.1,1.1-2.1,1.8-2.9c0.5,0.4,1,0.8,1.3,1.3c0.6,0.8,1,1.9,1.1,3.1L9.2,9.2c-0.8,0.6-0.3,2.2,1.6,4.9
		c1.8,2.5,3.1,3.5,3.9,2.9l0.2-0.1c1.1,0.6,1.9,1.3,2.5,2.1c0.3,0.5,0.6,1,0.9,1.6C17.3,21.1,16.2,21.4,15.2,21.5z"/>
	<path id="XMLID_3_" class="st0" d="M19.1,19.9l-0.4,0.3c-0.2-0.6-0.5-1.1-0.9-1.6c-0.7-0.9-1.5-1.6-2.5-2.1l0.4-0.3
		c1.2-0.9,2.4-0.5,3.6,1.1c0.4,0.6,0.6,1.1,0.6,1.5C19.9,19.2,19.6,19.5,19.1,19.9z"/>
</g>
</svg>
