<?xml version="1.0" encoding="utf-8"?>
<!-- Generator: Adobe Illustrator 19.0.0, SVG Export Plug-In . SVG Version: 6.00 Build 0)  -->
<svg version="1.1" id="Layer_1" xmlns="http://www.w3.org/2000/svg" xmlns:xlink="http://www.w3.org/1999/xlink" x="0px" y="0px"
	 viewBox="0 0 25 25" style="enable-background:new 0 0 25 25;" xml:space="preserve">
<style type="text/css">
	.st0{fill:#F2FF15;}
</style>
<g>
	<path id="XMLID_2_" class="st0" d="M24.2,24.4c-0.7,0.7-1.9,0.7-2.7,0L0.6,3.5c-0.7-0.7-0.7-1.9,0-2.7l0.3-0.3
		c0.7-0.7,1.9-0.7,2.7,0l20.9,20.9c0.7,0.7,0.7,1.9,0,2.7L24.2,24.4z"/>
	<path id="XMLID_1_" class="st0" d="M24.4,0.8c0.7,0.7,0.7,1.9,0,2.7L3.5,24.4c-0.7,0.7-1.9,0.7-2.7,0l-0.3-0.3
		c-0.7-0.7-0.7-1.9,0-2.7L21.5,0.6c0.7-0.7,1.9-0.7,2.7,0L24.4,0.8z"/>
</g>
</svg>
