<?xml version="1.0" encoding="utf-8"?>
<!-- Generator: Adobe Illustrator 19.0.0, SVG Export Plug-In . SVG Version: 6.00 Build 0)  -->
<svg version="1.1" id="Layer_1" xmlns="http://www.w3.org/2000/svg" xmlns:xlink="http://www.w3.org/1999/xlink" x="0px" y="0px"
	 viewBox="0 0 42.5 42.5" style="enable-background:new 0 0 42.5 42.5;" xml:space="preserve">
<style type="text/css">
	.st0{fill:#FFFFFF;}
</style>
<g id="XMLID_38_">
	<g id="XMLID_39_">
		<g id="XMLID_40_">
			<polygon id="XMLID_36_" class="st0" points="12.8,15.9 12.8,17.9 21.3,23 29.8,17.9 29.8,16 21.3,21 			"/>
			<path id="XMLID_41_" class="st0" d="M21.1,0.9C9.9,0.9,0.8,10,0.8,21.2s9.1,20.3,20.3,20.3c11.2,0,20.3-9.1,20.3-20.3
				S32.3,0.9,21.1,0.9z M30.8,27.5c0,0.7-0.6,1.3-1.3,1.3H13c-0.7,0-1.3-0.6-1.3-1.3V15c0-0.7,0.6-1.3,1.3-1.3h16.5
				c0.7,0,1.3,0.6,1.3,1.3V27.5z"/>
		</g>
	</g>
</g>
</svg>
