<?xml version="1.0" encoding="utf-8"?>
<!-- Generator: Adobe Illustrator 19.0.0, SVG Export Plug-In . SVG Version: 6.00 Build 0)  -->
<svg version="1.1" id="Layer_1" xmlns="http://www.w3.org/2000/svg" xmlns:xlink="http://www.w3.org/1999/xlink" x="0px" y="0px"
	 viewBox="0 0 42.5 42.5" style="enable-background:new 0 0 42.5 42.5;" xml:space="preserve">
<style type="text/css">
	.st0{fill:#FFFFFF;}
</style>
<g id="XMLID_42_">
	<g id="XMLID_43_">
		<path id="XMLID_44_" class="st0" d="M21.3,0.9C10,0.9,0.9,10,0.9,21.2S10,41.6,21.3,41.6c11.2,0,20.3-9.1,20.3-20.3
			S32.5,0.9,21.3,0.9z M26.3,22H23c0,5.3,0,11.8,0,11.8h-4.9c0,0,0-6.4,0-11.8h-2.3v-4.2h2.3v-2.7c0-1.9,0.9-4.9,4.9-4.9l3.6,0v4
			c0,0-2.2,0-2.6,0c-0.4,0-1,0.2-1,1.1v2.4h3.7L26.3,22z"/>
	</g>
</g>
</svg>
