<?xml version="1.0" encoding="utf-8"?>
<!-- Generator: Adobe Illustrator 19.0.0, SVG Export Plug-In . SVG Version: 6.00 Build 0)  -->
<svg version="1.1" id="Layer_1" xmlns="http://www.w3.org/2000/svg" xmlns:xlink="http://www.w3.org/1999/xlink" x="0px" y="0px"
	 viewBox="0 0 25 25" style="enable-background:new 0 0 25 25;" xml:space="preserve">
<style type="text/css">
	.st0{fill:#FFFFFF;}
</style>
<g>
	<path id="XMLID_3_" class="st0" d="M25,5.6C25,6.4,24.4,7,23.6,7H1.4C0.6,7,0,6.4,0,5.6V5.4C0,4.6,0.6,4,1.4,4h22.2
		C24.4,4,25,4.6,25,5.4V5.6z"/>
	<path id="XMLID_2_" class="st0" d="M25,12.6c0,0.8-0.6,1.4-1.4,1.4H1.4C0.6,14,0,13.4,0,12.6v-0.2C0,11.6,0.6,11,1.4,11h22.2
		c0.8,0,1.4,0.6,1.4,1.4V12.6z"/>
	<path id="XMLID_1_" class="st0" d="M25,20.6c0,0.8-0.6,1.4-1.4,1.4H1.4C0.6,22,0,21.4,0,20.6v-0.2C0,19.6,0.6,19,1.4,19h22.2
		c0.8,0,1.4,0.6,1.4,1.4V20.6z"/>
</g>
</svg>
