<?xml version="1.0" encoding="utf-8"?>
<!-- Generator: Adobe Illustrator 19.0.0, SVG Export Plug-In . SVG Version: 6.00 Build 0)  -->
<svg version="1.1" id="Layer_1" xmlns="http://www.w3.org/2000/svg" xmlns:xlink="http://www.w3.org/1999/xlink" x="0px" y="0px"
	 viewBox="0 0 36.4 25.1" style="enable-background:new 0 0 36.4 25.1;" xml:space="preserve">
<style type="text/css">
	.st0{fill:#0D1D2B;}
</style>
<g>
	<polygon id="XMLID_62_" class="st0" points="2.4,5.1 1.5,5.1 1.5,1.1 0,1.1 0,0.3 3.9,0.3 3.9,1.1 2.4,1.1 	"/>
	<path class="st0" d="M7.9,5.1L6.8,3.4h-1v1.7H4.9V0.3H7c1.1,0,1.8,0.6,1.8,1.5c0,0.8-0.5,1.3-1.1,1.4l1.3,1.8H7.9z M6.9,1.1H5.7
		v1.6h1.2c0.6,0,1-0.3,1-0.8C7.9,1.4,7.6,1.1,6.9,1.1"/>
	<polygon id="XMLID_59_" class="st0" points="13.5,1.1 10.8,1.1 10.8,2.3 13.2,2.3 13.2,3.1 10.8,3.1 10.8,4.4 13.5,4.4 13.5,5.1 
		9.9,5.1 9.9,0.3 13.5,0.3 	"/>
	<path id="XMLID_58_" class="st0" d="M16.5,2.3C17.5,2.6,18,3,18,3.7c0,0.9-0.7,1.4-1.7,1.4c-0.7,0-1.4-0.3-2-0.8l0.5-0.6
		c0.5,0.4,0.9,0.6,1.5,0.6c0.5,0,0.8-0.2,0.8-0.6c0-0.3-0.2-0.5-1.1-0.7c-1-0.2-1.6-0.5-1.6-1.4c0-0.8,0.7-1.4,1.6-1.4
		c0.7,0,1.2,0.2,1.7,0.6l-0.4,0.6C17,1.2,16.5,1,16.1,1c-0.5,0-0.8,0.3-0.8,0.6C15.3,2,15.6,2.1,16.5,2.3"/>
	<polygon id="XMLID_57_" class="st0" points="2.4,12.2 1.5,12.2 1.5,8.2 0,8.2 0,7.5 3.9,7.5 3.9,8.2 2.4,8.2 	"/>
	<path class="st0" d="M7.9,12.2l-1.2-1.7h-1v1.7H4.9V7.5H7C8.1,7.5,8.8,8,8.8,9c0,0.8-0.5,1.3-1.1,1.4l1.3,1.8H7.9z M6.9,8.2H5.7
		v1.6h1.2c0.6,0,1-0.3,1-0.8C7.9,8.5,7.6,8.2,6.9,8.2"/>
	<rect id="XMLID_54_" x="10" y="7.5" class="st0" width="0.8" height="4.8"/>
	<path id="XMLID_53_" class="st0" d="M14.1,9.5c1,0.2,1.5,0.6,1.5,1.4c0,0.9-0.7,1.4-1.7,1.4c-0.7,0-1.4-0.3-2-0.8l0.5-0.6
		c0.5,0.4,0.9,0.6,1.5,0.6c0.5,0,0.8-0.2,0.8-0.6c0-0.3-0.2-0.5-1.1-0.7c-1-0.2-1.6-0.5-1.6-1.4c0-0.8,0.7-1.4,1.6-1.4
		c0.7,0,1.2,0.2,1.7,0.6L15,8.6c-0.4-0.3-0.9-0.5-1.3-0.5c-0.5,0-0.8,0.3-0.8,0.6C12.9,9.1,13.2,9.2,14.1,9.5"/>
	<polygon id="XMLID_52_" class="st0" points="18.6,12.2 17.8,12.2 17.8,8.2 16.3,8.2 16.3,7.5 20.1,7.5 20.1,8.2 18.6,8.2 	"/>
	<polygon id="XMLID_51_" class="st0" points="24.7,8.2 22,8.2 22,9.4 24.4,9.4 24.4,10.2 22,10.2 22,11.5 24.7,11.5 24.7,12.2 
		21.2,12.2 21.2,7.5 24.7,7.5 	"/>
	<path id="XMLID_50_" class="st0" d="M27.7,9.5c1,0.2,1.5,0.6,1.5,1.4c0,0.9-0.7,1.4-1.7,1.4c-0.7,0-1.4-0.3-2-0.8l0.5-0.6
		c0.5,0.4,0.9,0.6,1.5,0.6c0.5,0,0.8-0.2,0.8-0.6c0-0.3-0.2-0.5-1.1-0.7c-1-0.2-1.6-0.5-1.6-1.4c0-0.8,0.7-1.4,1.6-1.4
		c0.7,0,1.2,0.2,1.7,0.6l-0.4,0.6c-0.4-0.3-0.9-0.5-1.3-0.5c-0.5,0-0.8,0.3-0.8,0.6C26.5,9.1,26.8,9.2,27.7,9.5"/>
	<polygon id="XMLID_49_" class="st0" points="2.4,19.7 1.5,19.7 1.5,15.7 0,15.7 0,14.9 3.9,14.9 3.9,15.7 2.4,15.7 	"/>
	<rect id="XMLID_48_" x="4.9" y="14.9" class="st0" width="0.8" height="4.8"/>
	<path id="XMLID_47_" class="st0" d="M9.4,19.7C8,19.7,7,18.7,7,17.3c0-1.3,1-2.5,2.5-2.5c0.8,0,1.3,0.2,1.8,0.6l-0.5,0.6
		c-0.4-0.3-0.7-0.5-1.3-0.5c-0.9,0-1.5,0.8-1.5,1.7c0,1,0.6,1.7,1.6,1.7c0.4,0,0.9-0.1,1.1-0.4v-0.9H9.4V17h2v2
		C11,19.4,10.3,19.7,9.4,19.7"/>
	<path class="st0" d="M15.7,19.7L14.5,18h-1v1.7h-0.8v-4.8h2.1c1.1,0,1.8,0.6,1.8,1.5c0,0.8-0.5,1.3-1.1,1.4l1.3,1.8H15.7z
		 M14.7,15.7h-1.2v1.6h1.2c0.6,0,1-0.3,1-0.8C15.7,15.9,15.3,15.7,14.7,15.7"/>
	<polygon id="XMLID_44_" class="st0" points="21.2,15.6 18.5,15.6 18.5,16.9 20.9,16.9 20.9,17.6 18.5,17.6 18.5,18.9 21.3,18.9 
		21.3,19.7 17.7,19.7 17.7,14.9 21.2,14.9 	"/>
	<path id="XMLID_43_" class="st0" d="M24.2,16.9c1,0.2,1.5,0.6,1.5,1.4c0,0.9-0.7,1.4-1.7,1.4c-0.7,0-1.4-0.3-2-0.8l0.5-0.6
		c0.5,0.4,0.9,0.6,1.5,0.6c0.5,0,0.8-0.2,0.8-0.6c0-0.3-0.2-0.5-1.1-0.7c-1-0.2-1.6-0.5-1.6-1.4c0-0.8,0.7-1.4,1.6-1.4
		c0.7,0,1.2,0.2,1.7,0.6l-0.4,0.6c-0.4-0.3-0.9-0.5-1.3-0.5c-0.5,0-0.8,0.3-0.8,0.6C23.1,16.5,23.3,16.7,24.2,16.9"/>
	<path class="st0" d="M1.1,23.7H0.3v1.1H0v-3h1.1c0.7,0,1.1,0.3,1.1,0.9v0C2.2,23.4,1.7,23.7,1.1,23.7 M2,22.7C2,22.3,1.7,22,1.1,22
		H0.3v1.5h0.8C1.6,23.5,2,23.2,2,22.7L2,22.7z"/>
	<path id="XMLID_40_" class="st0" d="M5.2,24.8c-0.7,0-1.2-0.5-1.2-1.3v-1.7h0.2v1.7c0,0.7,0.4,1.1,1,1.1c0.6,0,1-0.4,1-1.1v-1.7
		h0.2v1.7C6.4,24.4,5.9,24.8,5.2,24.8"/>
	<path class="st0" d="M9.6,24.8H8.3v-3h1.2c0.6,0,1,0.3,1,0.7v0c0,0.4-0.3,0.6-0.5,0.7c0.4,0.1,0.7,0.3,0.7,0.7v0
		C10.7,24.5,10.3,24.8,9.6,24.8 M10.3,22.6c0-0.3-0.3-0.5-0.7-0.5h-1v1.2h1C10,23.2,10.3,23,10.3,22.6L10.3,22.6z M10.5,24
		c0-0.4-0.3-0.6-0.9-0.6h-1v1.2h1.1C10.2,24.6,10.5,24.4,10.5,24L10.5,24z"/>
	<polygon id="XMLID_14_" class="st0" points="12.5,24.8 12.5,21.8 12.7,21.8 12.7,24.6 14.5,24.6 14.5,24.8 	"/>
	<rect id="XMLID_13_" x="16.3" y="21.8" class="st0" width="0.2" height="3"/>
	<path id="XMLID_12_" class="st0" d="M19.9,24.9c-0.9,0-1.5-0.7-1.5-1.5v0c0-0.8,0.6-1.5,1.5-1.5c0.5,0,0.9,0.2,1.2,0.5l-0.2,0.2
		c-0.3-0.3-0.6-0.4-1-0.4c-0.7,0-1.3,0.6-1.3,1.3v0c0,0.8,0.5,1.3,1.3,1.3c0.4,0,0.7-0.2,1-0.5l0.1,0.1
		C20.8,24.6,20.4,24.9,19.9,24.9"/>
	<rect id="XMLID_11_" x="22.8" y="21.8" class="st0" width="0.2" height="3"/>
	<path class="st0" d="M26.1,24.8h-1v-3h1c0.9,0,1.6,0.6,1.6,1.5v0C27.7,24.2,27,24.8,26.1,24.8 M27.4,23.3c0-0.7-0.5-1.3-1.4-1.3
		h-0.8v2.6h0.8C26.9,24.6,27.4,24,27.4,23.3L27.4,23.3z"/>
	<path class="st0" d="M31.8,24.8L31.4,24h-1.8l-0.4,0.8h-0.2l1.4-3h0.2l1.4,3H31.8z M30.6,22l-0.8,1.7h1.6L30.6,22z"/>
	<path class="st0" d="M34.8,24.8h-1v-3h1c0.9,0,1.6,0.6,1.6,1.5v0C36.4,24.2,35.7,24.8,34.8,24.8 M36.1,23.3c0-0.7-0.5-1.3-1.4-1.3
		H34v2.6h0.8C35.6,24.6,36.1,24,36.1,23.3L36.1,23.3z"/>
</g>
</svg>
