<?xml version="1.0" encoding="utf-8"?>
<!-- Generator: Adobe Illustrator 19.0.0, SVG Export Plug-In . SVG Version: 6.00 Build 0)  -->
<svg version="1.1" id="Layer_1" xmlns="http://www.w3.org/2000/svg" xmlns:xlink="http://www.w3.org/1999/xlink" x="0px" y="0px"
	 viewBox="0 0 166.3 300" style="enable-background:new 0 0 166.3 300;" xml:space="preserve">
<style type="text/css">
	.st0{fill:#F2FF15;}
</style>
<g>
	<path class="st0" d="M163.6,284.9c-2.5,1.7-16.9,10.5-23.8,10.5c-6.9,0-35.5-10.2-39.8-15.3c0,0-5.3-8.4-4.4-8.7
		c0,0,30.3,10.6,44,9c0,0-29.7-5-48.3-16c0,0-3.9-7.6-3.2-8c0,0,32.4,13.4,60.3,13.3c0,0-61.5-15.4-64.6-21.4
		c-1.2-2.2-3.7-8.1-3.2-7.9c2.3,1,34.8,17.5,55,16.4c0,0-38.8-9.1-53-19.6c-1.1-0.8-1.8-1.8-1.3-3c0.2-0.6,23.2-9,25.2-12
		c5-7.2,1.9-45.6,1.9-45.6s7.6-19.6,4.6-26.1c0,0-10.5-14.7-8.6-15.6c0,0,6.3-4.9,7-5.4c0.7-0.4,1.2-1.9,16.1,12c0,0,0.6-1.5,0-2.4
		c-0.6-0.9-13.7-20.3-13.7-20.3s-9.2-10.1-11.6-11.1c-2.4-1-24.3-2.9-26.1-3.2c-1.9-0.3-8.4-6.6-9.5-9.4c-1.2-2.8,1.1-12.6,1.1-12.6
		s11.9,6.3,13.4,6.6c1.5,0.3,17.3,0.8,19.6,1.2c2.4,0.5,12,3.9,26.8,18.8c14.8,14.9-11-16.2-12.6-17.7c-1.4-1.3-4.7-2.5-5.8-3.1
		c-1.1-0.6-0.4-11.3,1.8-13.2c2.2-1.9,20.3-18.1,20.3-18.1l17.4-1.7c0,0-23.6,36.9-22.8,36.8c0.8-0.1,4.6-3.9,5-3.9
		c2.3-0.2-0.6,10.8-0.6,10.8s16.4-25.5,16.8-26.4c0.8-1.6-6.7,5.3-7.7,5c-1.1-0.3,1.3-8.3,4-10.2c2.7-1.9,10.9-8.5,12.7-9.9
		c1.9-1.4,2.9-9.8,2.9-9.8s-15.9,6.3-14.9,4.2c1.5-3.1,10.7-26.8,10-28.1c-0.7-1.3-8.7,17.7-23.5,20.2c0,0-29.3,9.8-31.7,11.1
		c-2.9,1.5-17,23.5-17,23.5s-6.7-4-9.5-6.5c-2.9-2.5,9.6-28.9,14.8-29.9c5.2-1,42.8-17.4,42.8-17.4l1.7-6.4c0,0,1.5-3.7,4.5-3.8
		c3-0.1,17.1,1,18.3,1c0.7,0,2.9-2.3,4.6-4.1l2.9-6.1l-1.6-0.3V5.1c0,0-0.8-0.3-2.7-0.7l0.1,0c-5.8-1.4-18.1-4.3-20.1-3.9
		c-2.7,0.5-18.3-0.4-24.4,1.9c0,0-5.7,5.6-8.3,5.8C102.5,8.4,66,20,57.7,21.9c-8.3,1.9-24.2,37.3-30.6,40.3
		c-6.4,3.1-13.2,10.3-16.4,12.3C-2.8,82.6,1.7,94,5.8,97c14.8,11,2.7,29.2,3.7,33.2c0,0,12.7,48.8,14.9,51.4
		c2.5,2.9,30.3,33.5,30.3,33.5s4.2-0.4,5.1,3.2l13.9,17.2c0,0,5.1,17,6.5,18.3c0,0,13.8,27.3,14.9,28.8c0.9,1.2,7,4.6,12.6,6.4
		c0,0,24.7,10.4,32.5,10.6c7.7,0.3,15.3-8.5,23.2-8.7C165.1,290.8,165,284,163.6,284.9z M102.4,60.2c4-0.8,27.9-8.4,27.9-8.4
		s-21.9,17.9-24,21.2c-2.1,3.3-4.2,13.2-4.2,13.2c-15.3-2.8-17.5-6.4-17.5-6.4S98.4,61,102.4,60.2z M84.3,110h10.1
		c-3,8,3.3,11,3.3,11l3.7-3.6l0.4-4.7l8.8,7.2c0,0-1,4.6-1.7,5.6c-0.7,1-3.8,3.1-4.9,3.3c-1.1,0.3-5.3,0-7.3,0
		c-2.1,0-7.6-3.9-8.7-5.5c-1.1-1.7-3.7-5.8-3.7-7.2C84.3,114.6,84.3,110,84.3,110z M81.1,125.9c5.1,2.5,16,11.6,16,11.6
		s11.3,32,10.6,31.9c-0.2,0-16.6-21-14.9-20.6c2.6,0.7,4.9,0,4.9,0c-7.3-1.6-26.4-16.1-27.7-17.3c-1.3-1.1-2.4-13.9-1.4-14.9
		c1-1,5.7-5.7,5.7-5.7C76.4,111.2,76,123.4,81.1,125.9z M50.6,138.9c0.7-1.1,7.3-10.7,8.8-10.8c1.5-0.1,9.2,10.2,9.2,10.2l16.7,7.9
		c2.8,2.8,18.1,19.1,17.1,19.7c-0.4,0.3-0.5,0.3-0.5,0.3c-24.4,16.4-26.2,13.1-26.2,13.1c-3.1-0.6-11.3-12.2-13.9-15.2
		c-2.6-3-6.7-9.9-6-9.3c5.7,4.3,29.1,7.1,28.5,5.7C72.7,158.8,48.4,142.6,50.6,138.9z M67.5,104.9c1.6-1.2,5.1,4.6,5.1,4.6
		s-10.4,4.6-11.9,5.8c-1.5,1.2-12.9,22-12.9,22s-5.4,14.6-4.3,15.5c0.9,0.7,8.1,9.1,8.1,9.1c1.5,0.8,6.4,16.8,7.5,18.1
		c1.1,1.3,14.7,9.7,14.7,9.7s-1.5,9.1-2.1,8.7c-0.3-0.3-25.6-29.8-25.6-29.8c-2.6-10.9-8.4-26.5-5.3-32.5
		C46.2,125.5,67.5,104.9,67.5,104.9z M78.2,227c-0.7-3.5-10.4-18.5-12.8-21.7c-2.4-3.2-20.8-21.2-27.6-30.4c0,0-9.4-36.1-8.2-40.6
		c2.6-9.6,5.2-22.1,6.2-23.4c3.1-4,6.8-4.1,8.6-6c0.8-0.9-8.1,2.3-7.7,1.4c1.1-2.2-10.4-7.6-11.8-10.2c-3.4-6.8,12.8-13.3,14.3-14.1
		c3.1-1.8,9.3-6.2,10-6.4c0.1,0-0.3,2.2-2.1,4c-0.6,0.6-4.2,2.9-5.4,4.6C40.4,85.8,36,97.5,36,98.2c0,0.6,2.4-6,11.5-10
		c0.3-0.1-3.1,7.7-4.1,11.4c0.1-0.4,0.4-1.2,1.1-2.3c1.5-2.4,7.2-7.6,12-11.2c2.6-1.9,0,6.2,0.1,6.2c0.4,0-7.9,9.2-7.7,9.4
		c1.1,0.8,3.6,1.5,5.3,1.2c1.2-0.2,1.4,1.1-1.9,4.2c-1,1-8,6.9-9.5,12.1c-3.2,10.7-6.4,19.1-7.5,22.1c-0.6,1.7,6.7,30.1,7.5,30.8
		c0,0,28,32,29,33c1,1,1.2,0.2,1.5-0.7c0.7-2.1,5.7-23.2,30-37c0.5-0.3,2.4,2,2.6,2.2c1.4,1.8,0.9,2.5,0.9,2.5
		c-4.5,12.7,0.7,40.8-3.7,46.1C101,221.1,79.4,233,78.2,227z"/>
	<path id="XMLID_1_" class="st0" d="M137.3,227.6c0,0-6.4-0.1-10.6,5L124,230l-1.2-7.9l-1.9,10c0,0-0.4,7.3,11.5,13
		c9.8,4.7,22.6,16.7,20.4,21.8c-2.2,5.1,7,9,7.7,9.2c0.7,0.2,1.2,0.3,1.8,0.2c0.6-0.1,1.5-5.1-1-5.1c-2.3-0.2-4-1.5-5.5-4.5
		c-1.5-2.9-2.8-13.9-14.6-21.6c-6.7-4.4-11.2-7.2-9.7-9.9c0,0,1.1-4,7.5-4c5.4,0,20,7.1,23.3,7.1c0,0,2.2-4,0-4.7
		C160.1,232.9,147.5,228.5,137.3,227.6z"/>
</g>
</svg>
