<?xml version="1.0" encoding="utf-8"?>
<!-- Generator: Adobe Illustrator 19.0.0, SVG Export Plug-In . SVG Version: 6.00 Build 0)  -->
<svg version="1.1" id="Layer_1" xmlns="http://www.w3.org/2000/svg" xmlns:xlink="http://www.w3.org/1999/xlink" x="0px" y="0px"
	 viewBox="0 0 13.9 25.1" style="enable-background:new 0 0 13.9 25.1;" xml:space="preserve">
<style type="text/css">
	.st0{fill:#0D1D2B;}
</style>
<g id="XMLID_5_">
	<path id="XMLID_7_" class="st0" d="M13.5,24c-0.2,0.1-1.4,0.9-2,0.9s-3-0.9-3.3-1.3c0,0-0.4-0.7-0.4-0.7c0,0,2.5,0.9,3.7,0.8
		c0,0-2.5-0.4-4-1.3c0,0-0.3-0.6-0.3-0.7c0,0,2.7,1.1,5,1.1c0,0-5.1-1.3-5.4-1.8c-0.1-0.2-0.3-0.7-0.3-0.7c0.2,0.1,2.9,1.5,4.6,1.4
		c0,0-3.2-0.8-4.4-1.6c-0.1-0.1-0.1-0.2-0.1-0.3c0,0,1.9-0.8,2.1-1c0.4-0.6,0.2-3.8,0.2-3.8s0.6-1.6,0.4-2.2c0,0-0.9-1.2-0.7-1.3
		c0,0,0.5-0.4,0.6-0.5c0.1,0,0.1-0.2,1.3,1c0,0,0-0.1,0-0.2c0-0.1-1.1-1.7-1.1-1.7s-0.8-0.8-1-0.9c-0.2-0.1-2-0.2-2.2-0.3
		c-0.2,0-0.7-0.6-0.8-0.8C5.3,7.9,5.5,7.1,5.5,7.1s1,0.5,1.1,0.6c0.1,0,1.4,0.1,1.6,0.1c0.2,0,1,0.3,2.2,1.6c1.2,1.2-0.9-1.4-1-1.5
		C9.4,7.7,9.1,7.6,9,7.5c-0.1,0,0-0.9,0.1-1.1c0.2-0.2,1.7-1.5,1.7-1.5l1.5-0.1c0,0-2,3.1-1.9,3.1c0.1,0,0.4-0.3,0.4-0.3
		c0.2,0-0.1,0.9-0.1,0.9s1.4-2.1,1.4-2.2c0.1-0.1-0.6,0.4-0.6,0.4c-0.1,0,0.1-0.7,0.3-0.9c0.2-0.2,0.9-0.7,1.1-0.8
		c0.2-0.1,0.5-0.8,0.5-0.8s0-1.3,0-1.4c0-0.1-0.1,0-0.1,0c0,0-0.5,1.4-0.7,1.6c-0.1,0.1-0.8,0.3-0.7,0.2c0.1-0.3,0.9-2.2,0.8-2.3
		c-0.1-0.1-0.7,1.5-2,1.7c0,0-2.4,0.8-2.6,0.9c-0.2,0.1-1.4,2-1.4,2S6.2,6.4,5.9,6.2C5.7,6,6.7,3.8,7.2,3.7c0.4-0.1,3.6-1.5,3.6-1.5
		l0.1-0.5c0,0,0.1-0.3,0.4-0.3c0.3,0,1.4,0.1,1.5,0.1c0.1,0,0.2-0.2,0.4-0.3l0.6-0.5l0.2,0v0c0,0-0.6-0.5-0.8-0.5h0
		c-0.5,0-1.5-0.2-1.7-0.1c-0.2,0-1.5,0.1-2,0.3c0,0-0.5,0.5-0.7,0.5c-0.2,0-3.3,1-4,1.2C4,2.1,2.7,5.1,2.1,5.3
		C1.6,5.6,1,6.2,0.8,6.4C-0.4,7.1,0,8,0.3,8.3c1.2,0.9,0.2,2.4,0.3,2.8c0,0,1.1,4.1,1.2,4.3c0.2,0.2,2.5,2.8,2.5,2.8s0.4,0,0.4,0.3
		L6,19.8c0,0,0.4,1.4,0.5,1.5c0,0,1.1,2.3,1.2,2.4c0.1,0.1,0.6,0.4,1.1,0.5c0,0,2.1,0.9,2.7,0.9c0.6,0,1.3-0.7,1.9-0.7
		C13.7,24.5,13.7,23.9,13.5,24z M8.4,5.2c0.3-0.1,2.3-0.7,2.3-0.7S8.9,6,8.7,6.3C8.6,6.5,8.4,7.4,8.4,7.4C7.1,7.1,6.9,6.8,6.9,6.8
		S8.1,5.3,8.4,5.2z M6.9,9.1h0.9c-0.3,1,0.3,1,0.3,1l0.3-0.2l0-0.4l0.7,0.6c0,0-0.1,0.4-0.1,0.5c-0.1,0.1-0.3,0.3-0.4,0.3
		c-0.1,0-0.4,0-0.6,0c-0.2,0-0.6-0.3-0.7-0.5C7.1,10.3,6.9,10,6.9,9.9C6.9,9.7,6.9,9.1,6.9,9.1z M6.6,10.7c0.4,0.2,1.3,1,1.3,1
		s0.9,2.7,0.9,2.7c0,0-1.4-1.8-1.2-1.7c0.2,0.1,0.4,0,0.4,0c-0.6-0.1-2.2-1.3-2.3-1.4C5.6,11.1,5.5,10,5.6,9.9
		c0.1-0.1,0.5-0.5,0.5-0.5C6.2,9.5,6.2,10.5,6.6,10.7z M4.1,11.8c0.1-0.1,0.6-0.9,0.7-0.9c0.1,0,0.8,0.9,0.8,0.9L7,12.4
		C7.2,12.6,8.5,14,8.4,14c0,0,0,0,0,0c-2,1.4-2.2,1.1-2.2,1.1c-0.3,0-0.9-1-1.2-1.3c-0.2-0.3-0.6-0.8-0.5-0.8
		C5,13.5,7,13.7,6.9,13.6C5.9,13.4,3.9,12.1,4.1,11.8z M5.5,8.9c0.1-0.1,0.4,0.4,0.4,0.4s-0.9,0.4-1,0.5c-0.1,0.1-1.1,1.8-1.1,1.8
		s-0.4,1.2-0.4,1.3c0.1,0.1,0.7,0.8,0.7,0.8c0.1,0.1,0.5,1.4,0.6,1.5C4.9,15.3,6,16,6,16s-0.1,0.8-0.2,0.7c0,0-2.1-2.5-2.1-2.5
		C3.5,13.3,3,12,3.3,11.5C3.7,10.6,5.5,8.9,5.5,8.9z M6.4,19.1c-0.1-0.3-0.9-1.5-1.1-1.8C5.1,17,3.6,15.5,3,14.8c0,0-0.8-3-0.7-3.4
		c0.2-0.8,0.4-1.8,0.5-2c0.3-0.3,0.6-0.3,0.7-0.5C3.6,8.8,2.9,9.1,2.9,9c0.1-0.2-0.9-0.6-1-0.9C1.7,7.6,3,7.1,3.1,7
		C3.4,6.9,3.9,6.5,4,6.5c0,0,0,0.2-0.2,0.3C3.7,6.8,3.5,7,3.3,7.2C3.2,7.3,2.9,8.3,2.9,8.4c0,0,0.2-0.5,1-0.8c0,0-0.3,0.6-0.3,1
		c0,0,0-0.1,0.1-0.2c0.1-0.2,0.6-0.6,1-0.9c0.2-0.2,0,0.5,0,0.5c0,0-0.7,0.8-0.6,0.8c0.1,0.1,0.3,0.1,0.4,0.1c0.1,0,0.1,0.1-0.2,0.4
		c-0.1,0.1-0.7,0.6-0.8,1C3.2,11,2.9,11.7,2.8,12c-0.1,0.1,0.6,2.5,0.6,2.6c0,0,2.3,2.7,2.4,2.8C6,17.4,6,17.3,6,17.2
		c0.1-0.2,0.5-1.9,2.5-3.1c0,0,0.2,0.2,0.2,0.2c0.1,0.1,0.1,0.2,0.1,0.2c-0.4,1.1,0.1,3.4-0.3,3.9C8.3,18.6,6.5,19.6,6.4,19.1z"/>
	<path id="XMLID_6_" class="st0" d="M11.3,19.2c0,0-0.5,0-0.9,0.4l-0.2-0.2l-0.1-0.7L10,19.6c0,0,0,0.6,1,1.1
		c0.8,0.4,1.9,1.4,1.7,1.8c-0.2,0.4,0.6,0.8,0.6,0.8c0.1,0,0.1,0,0.2,0c0.1,0,0.1-0.4-0.1-0.4c-0.2,0-0.3-0.1-0.5-0.4
		c-0.1-0.2-0.2-1.2-1.2-1.8c-0.6-0.4-0.9-0.6-0.8-0.8c0,0,0.1-0.3,0.6-0.3c0.5,0,1.7,0.6,1.9,0.6c0,0,0.2-0.3,0-0.4
		C13.2,19.6,12.2,19.3,11.3,19.2z"/>
</g>
</svg>
