<?xml version="1.0" encoding="utf-8"?>
<!-- Generator: Adobe Illustrator 19.0.0, SVG Export Plug-In . SVG Version: 6.00 Build 0)  -->
<svg version="1.1" id="Layer_1" xmlns="http://www.w3.org/2000/svg" xmlns:xlink="http://www.w3.org/1999/xlink" x="0px" y="0px"
	 viewBox="0 0 100 100" style="enable-background:new 0 0 100 100;" xml:space="preserve">
<style type="text/css">
	.st0{fill:#0D1D2B;}
</style>
<g>
	<g>
		<polygon id="XMLID_83_" class="st0" points="48.1,39.6 46.8,39.6 46.8,33.7 44.6,33.7 44.6,32.5 50.3,32.5 50.3,33.7 48.1,33.7 		
			"/>
		<path class="st0" d="M56.4,39.6l-1.8-2.5h-1.6v2.5h-1.3v-7.1H55c1.6,0,2.6,0.9,2.6,2.3c0,1.2-0.7,1.9-1.7,2.2l1.9,2.7H56.4z
			 M54.9,33.6h-1.8V36H55c0.9,0,1.5-0.5,1.5-1.2C56.4,34.1,55.9,33.6,54.9,33.6"/>
		<polygon id="XMLID_80_" class="st0" points="64.7,33.6 60.7,33.6 60.7,35.5 64.3,35.5 64.3,36.6 60.7,36.6 60.7,38.5 64.8,38.5 
			64.8,39.6 59.4,39.6 59.4,32.5 64.7,32.5 		"/>
		<path id="XMLID_79_" class="st0" d="M69.2,35.5c1.5,0.4,2.3,0.9,2.3,2.1c0,1.3-1,2.1-2.5,2.1c-1.1,0-2.1-0.4-3-1.1l0.8-0.9
			c0.7,0.6,1.4,0.9,2.3,0.9c0.8,0,1.3-0.4,1.3-0.9c0-0.5-0.3-0.8-1.6-1.1c-1.5-0.4-2.4-0.8-2.4-2.1c0-1.2,1-2.1,2.4-2.1
			c1,0,1.9,0.3,2.6,0.9l-0.7,0.9c-0.6-0.5-1.3-0.7-1.9-0.7c-0.7,0-1.2,0.4-1.2,0.9C67.5,34.9,67.9,35.2,69.2,35.5"/>
		<polygon id="XMLID_78_" class="st0" points="48.1,50.3 46.8,50.3 46.8,44.3 44.6,44.3 44.6,43.2 50.3,43.2 50.3,44.3 48.1,44.3 		
			"/>
		<path class="st0" d="M56.4,50.3l-1.8-2.5h-1.6v2.5h-1.3v-7.1H55c1.6,0,2.6,0.9,2.6,2.3c0,1.2-0.7,1.9-1.7,2.2l1.9,2.7H56.4z
			 M54.9,44.3h-1.8v2.4H55c0.9,0,1.5-0.5,1.5-1.2C56.4,44.7,55.9,44.3,54.9,44.3"/>
		<rect id="XMLID_75_" x="59.5" y="43.2" class="st0" width="1.3" height="7.1"/>
		<path id="XMLID_74_" class="st0" d="M65.6,46.2c1.5,0.4,2.3,0.9,2.3,2.1c0,1.3-1,2.1-2.5,2.1c-1.1,0-2.1-0.4-3-1.1l0.8-0.9
			c0.7,0.6,1.4,0.9,2.3,0.9c0.8,0,1.3-0.4,1.3-0.9c0-0.5-0.3-0.8-1.6-1.1c-1.5-0.4-2.4-0.8-2.4-2.1c0-1.2,1-2.1,2.4-2.1
			c1,0,1.9,0.3,2.6,0.9L67,44.9c-0.6-0.5-1.3-0.7-1.9-0.7c-0.7,0-1.2,0.4-1.2,0.9C63.9,45.6,64.3,45.8,65.6,46.2"/>
		<polygon id="XMLID_73_" class="st0" points="72.5,50.3 71.2,50.3 71.2,44.3 68.9,44.3 68.9,43.2 74.7,43.2 74.7,44.3 72.5,44.3 		
			"/>
		<polygon id="XMLID_72_" class="st0" points="81.5,44.3 77.5,44.3 77.5,46.1 81.1,46.1 81.1,47.3 77.5,47.3 77.5,49.2 81.6,49.2 
			81.6,50.3 76.2,50.3 76.2,43.2 81.5,43.2 		"/>
		<path id="XMLID_71_" class="st0" d="M86,46.2c1.5,0.4,2.3,0.9,2.3,2.1c0,1.3-1,2.1-2.5,2.1c-1.1,0-2.1-0.4-3-1.1l0.8-0.9
			c0.7,0.6,1.4,0.9,2.3,0.9c0.8,0,1.3-0.4,1.3-0.9c0-0.5-0.3-0.8-1.6-1.1c-1.5-0.4-2.4-0.8-2.4-2.1c0-1.2,1-2.1,2.4-2.1
			c1,0,1.9,0.3,2.6,0.9l-0.7,0.9c-0.6-0.5-1.3-0.7-1.9-0.7c-0.7,0-1.2,0.4-1.2,0.9C84.3,45.6,84.6,45.8,86,46.2"/>
		<polygon id="XMLID_70_" class="st0" points="48.1,61.4 46.8,61.4 46.8,55.5 44.6,55.5 44.6,54.3 50.4,54.3 50.4,55.5 48.1,55.5 		
			"/>
		<rect id="XMLID_69_" x="51.9" y="54.3" class="st0" width="1.3" height="7.1"/>
		<path id="XMLID_68_" class="st0" d="M58.7,61.6c-2.2,0-3.7-1.6-3.7-3.7c0-2,1.5-3.7,3.7-3.7c1.2,0,2,0.3,2.7,1l-0.8,0.9
			c-0.6-0.5-1.1-0.8-2-0.8c-1.3,0-2.3,1.1-2.3,2.5c0,1.5,1,2.6,2.4,2.6c0.7,0,1.3-0.2,1.7-0.5v-1.3h-1.8v-1.1h3v3
			C61,61,60,61.6,58.7,61.6"/>
		<path class="st0" d="M68.1,61.4l-1.8-2.5h-1.6v2.5h-1.3v-7.1h3.2c1.6,0,2.6,0.9,2.6,2.3c0,1.2-0.7,1.9-1.7,2.2l1.9,2.7H68.1z
			 M66.6,55.4h-1.8v2.4h1.8c0.9,0,1.5-0.5,1.5-1.2C68,55.9,67.5,55.4,66.6,55.4"/>
		<polygon id="XMLID_65_" class="st0" points="76.3,55.4 72.3,55.4 72.3,57.3 75.9,57.3 75.9,58.4 72.3,58.4 72.3,60.3 76.4,60.3 
			76.4,61.4 71.1,61.4 71.1,54.3 76.3,54.3 		"/>
		<path id="XMLID_64_" class="st0" d="M80.8,57.3c1.5,0.4,2.3,0.9,2.3,2.1c0,1.3-1.1,2.1-2.5,2.1c-1.1,0-2.1-0.4-3-1.1l0.8-0.9
			c0.7,0.6,1.4,0.9,2.3,0.9c0.8,0,1.3-0.4,1.3-0.9c0-0.5-0.3-0.8-1.6-1.1c-1.5-0.4-2.4-0.8-2.4-2.1c0-1.2,1-2.1,2.4-2.1
			c1,0,1.9,0.3,2.6,0.9L82.2,56c-0.6-0.5-1.3-0.7-1.9-0.7c-0.7,0-1.2,0.4-1.2,0.9C79.1,56.7,79.5,57,80.8,57.3"/>
		<path class="st0" d="M46.2,67.5H45v1.7h-0.3v-4.5h1.6c1,0,1.7,0.5,1.7,1.4v0C47.9,67,47.1,67.5,46.2,67.5 M47.6,66.1
			c0-0.7-0.5-1.1-1.4-1.1H45v2.2h1.2C47,67.2,47.6,66.7,47.6,66.1L47.6,66.1z"/>
		<path id="XMLID_61_" class="st0" d="M52.3,69.2c-1.1,0-1.8-0.7-1.8-1.9v-2.6h0.3v2.6c0,1.1,0.6,1.7,1.5,1.7c0.9,0,1.5-0.5,1.5-1.6
			v-2.6h0.3v2.6C54.1,68.5,53.4,69.2,52.3,69.2"/>
		<path class="st0" d="M59,69.1h-1.9v-4.5h1.8c0.9,0,1.4,0.4,1.4,1.1v0c0,0.6-0.4,0.9-0.8,1.1c0.5,0.1,1,0.4,1,1.1v0
			C60.6,68.7,60,69.1,59,69.1 M60,65.8c0-0.5-0.4-0.8-1.1-0.8h-1.5v1.8h1.5C59.5,66.7,60,66.4,60,65.8L60,65.8z M60.3,67.9
			c0-0.5-0.5-0.9-1.4-0.9h-1.5v1.8H59C59.8,68.8,60.3,68.5,60.3,67.9L60.3,67.9z"/>
		<polygon id="XMLID_57_" class="st0" points="63.3,69.1 63.3,64.7 63.6,64.7 63.6,68.8 66.3,68.8 66.3,69.1 		"/>
		<rect id="XMLID_56_" x="69" y="64.7" class="st0" width="0.3" height="4.5"/>
		<path id="XMLID_55_" class="st0" d="M74.4,69.2c-1.3,0-2.2-1-2.2-2.3v0c0-1.3,0.9-2.3,2.2-2.3c0.8,0,1.3,0.3,1.7,0.7l-0.2,0.2
			c-0.4-0.4-0.8-0.7-1.5-0.7c-1.1,0-1.9,0.9-1.9,2v0c0,1.1,0.8,2,1.9,2c0.6,0,1.1-0.2,1.5-0.7l0.2,0.2
			C75.7,68.9,75.1,69.2,74.4,69.2"/>
		<rect id="XMLID_54_" x="78.7" y="64.7" class="st0" width="0.3" height="4.5"/>
		<path class="st0" d="M83.6,69.1h-1.5v-4.5h1.5c1.4,0,2.4,1,2.4,2.2v0C86,68.2,85,69.1,83.6,69.1 M85.6,66.9c0-1.1-0.8-1.9-2-1.9
			h-1.2v3.9h1.2C84.8,68.8,85.6,68,85.6,66.9L85.6,66.9z"/>
		<path class="st0" d="M92.2,69.1l-0.6-1.3H89l-0.6,1.3h-0.3l2.1-4.5h0.3l2.1,4.5H92.2z M90.3,65l-1.2,2.6h2.4L90.3,65z"/>
		<path class="st0" d="M96.6,69.1h-1.5v-4.5h1.5c1.4,0,2.4,1,2.4,2.2v0C99,68.2,98.1,69.1,96.6,69.1 M98.7,66.9c0-1.1-0.8-1.9-2-1.9
			h-1.2v3.9h1.2C97.9,68.8,98.7,68,98.7,66.9L98.7,66.9z"/>
	</g>
	<g>
		<path class="st0" d="M48.2,89.4c-0.7,0.5-4.9,3.1-6.9,3.1c-2,0-10.4-3-11.6-4.5c0,0-1.5-2.5-1.3-2.5c0,0,8.8,3.1,12.8,2.6
			c0,0-8.7-1.5-14.1-4.7c0,0-1.1-2.2-0.9-2.3c0,0,9.4,3.9,17.6,3.9c0,0-17.9-4.5-18.8-6.3c-0.3-0.7-1.1-2.4-0.9-2.3
			c0.7,0.3,10.1,5.1,16.1,4.8c0,0-11.3-2.7-15.5-5.7c-0.3-0.2-0.5-0.5-0.4-0.9c0.1-0.2,6.8-2.6,7.4-3.5c1.5-2.1,0.5-13.3,0.5-13.3
			s2.2-5.7,1.3-7.6c0,0-3.1-4.3-2.5-4.6c0,0,1.8-1.4,2.1-1.6c0.2-0.1,0.4-0.6,4.7,3.5c0,0,0.2-0.4,0-0.7c-0.2-0.2-4-5.9-4-5.9
			s-2.7-2.9-3.4-3.2c-0.7-0.3-7.1-0.8-7.6-0.9c-0.5-0.1-2.4-1.9-2.8-2.7c-0.3-0.8,0.3-3.7,0.3-3.7s3.5,1.8,3.9,1.9
			c0.4,0.1,5,0.2,5.7,0.4c0.7,0.1,3.5,1.1,7.8,5.5c4.3,4.4-3.2-4.7-3.7-5.2c-0.4-0.4-1.4-0.7-1.7-0.9c-0.3-0.2-0.1-3.3,0.5-3.9
			c0.6-0.6,5.9-5.3,5.9-5.3l5.1-0.5c0,0-6.9,10.8-6.7,10.7c0.2,0,1.3-1.1,1.5-1.1c0.7-0.1-0.2,3.2-0.2,3.2s4.8-7.4,4.9-7.7
			c0.2-0.5-1.9,1.6-2.3,1.5c-0.3-0.1,0.4-2.4,1.2-3c0.8-0.6,3.2-2.5,3.7-2.9c0.5-0.4,1.8-3,1.8-3s0-4.7,0-5s-0.2-0.1-0.2,0
			c0,0.1-1.7,4.7-2.5,5.7c-0.3,0.4-2.9,1.2-2.6,0.5c0.4-0.9,3.1-7.8,2.9-8.2c-0.2-0.4-2.5,5.2-6.9,5.9c0,0-8.5,2.9-9.2,3.2
			c-0.8,0.4-5,6.9-5,6.9s-1.9-1.2-2.8-1.9c-0.8-0.7,2.8-8.4,4.3-8.7c1.5-0.3,12.5-5.1,12.5-5.1l0.5-1.9c0,0,0.4-1.1,1.3-1.1
			c0.9,0,5,0.3,5.3,0.3c0.2,0,0.9-0.7,1.3-1.2l1.4-1.8l0-0.1v0c0,0-0.8-0.1-1.3-0.2l-0.2,0c-1.7-0.4-5.4-1.2-6-1.1
			c-0.8,0.1-5.4-0.1-7.2,0.6c0,0-1.7,1.6-2.4,1.7c-0.7,0.1-11.4,3.4-13.8,4c-2.4,0.6-7.1,10.9-8.9,11.8c-1.9,0.9-3.9,3-4.8,3.6
			c-3.9,2.4-2.6,5.7-1.4,6.6c4.3,3.2,0.8,8.5,1.1,9.7c0,0,3.7,14.2,4.4,15c0.7,0.9,8.9,9.8,8.9,9.8s1.2-0.1,1.5,0.9l4.1,5
			c0,0,1.5,5,1.9,5.3c0,0,4,8,4.4,8.4c0.3,0.3,2,1.3,3.7,1.9c0,0,7.2,3,9.5,3.1c2.3,0.1,4.5-2.5,6.8-2.5
			C48.7,91.1,48.7,89.1,48.2,89.4z M30.4,23.8c1.2-0.2,8.2-2.5,8.2-2.5s-6.4,5.2-7,6.2c-0.6,1-1.2,3.9-1.2,3.9
			c-4.5-0.8-5.1-1.9-5.1-1.9S29.2,24,30.4,23.8z M24.3,39h3.7c-0.9,3,0.9,2.9,0.9,2.9l1.1-1.2l0.1-1.5l2.6,2.1c0,0-0.3,1.3-0.5,1.6
			c-0.2,0.3-1.1,0.9-1.4,1c-0.3,0.1-1.5,0-2.1,0c-0.6,0-2.6-1.1-2.9-1.6c-0.3-0.5-1.5-1.7-1.5-2.1C24.3,39.7,24.3,39,24.3,39z
			 M24.2,43c1.5,0.7,4.7,3.4,4.7,3.4s3.3,9.3,3.1,9.3c0,0-4.8-6.1-4.4-6c0.8,0.2,1.4,0,1.4,0c-2.1-0.5-7.7-4.7-8.1-5
			c-0.4-0.3-0.7-4.1-0.4-4.4c0.3-0.3,1.7-1.7,1.7-1.7C22.8,38.7,22.7,42.2,24.2,43z M15.3,46.8c0.2-0.3,2.1-3.1,2.6-3.2
			c0.4,0,2.7,3,2.7,3l4.9,2.3c0.8,0.8,5.3,5.6,5,5.8c-0.1,0.1-0.1,0.1-0.1,0.1c-7.1,4.8-7.6,3.8-7.6,3.8c-0.9-0.2-3.3-3.5-4.1-4.4
			c-0.8-0.9-2-2.9-1.7-2.7c1.7,1.3,8.5,2.1,8.3,1.7C21.7,52.6,14.6,47.8,15.3,46.8z M20.2,36.8c0.5-0.4,1.5,1.3,1.5,1.3
			s-3,1.3-3.5,1.7c-0.4,0.4-3.8,6.4-3.8,6.4s-1.6,4.3-1.2,4.5c0.3,0.2,2.4,2.7,2.4,2.7c0.4,0.2,1.9,4.9,2.2,5.3
			c0.3,0.4,4.3,2.8,4.3,2.8s-0.5,2.7-0.6,2.5C21.3,64,14,55.4,14,55.4c-0.8-3.2-2.4-7.7-1.5-9.5C14,42.8,20.2,36.8,20.2,36.8z
			 M23.3,72.5c-0.2-1-3-5.4-3.7-6.3c-0.7-0.9-6.1-6.2-8-8.9c0,0-2.8-10.5-2.4-11.9c0.7-2.8,1.5-6.5,1.8-6.8c0.9-1.2,2-1.2,2.5-1.8
			c0.2-0.3-2.4,0.7-2.2,0.4c0.3-0.6-3-2.2-3.4-3c-1-2,3.7-3.9,4.2-4.1c0.9-0.5,2.7-1.8,2.9-1.9c0,0-0.1,0.7-0.6,1.2
			c-0.2,0.2-1.2,0.8-1.6,1.3c-0.4,0.5-1.7,3.9-1.7,4.1c0,0.2,0.7-1.7,3.4-2.9c0.1,0-0.9,2.3-1.2,3.3c0-0.1,0.1-0.3,0.3-0.7
			c0.4-0.7,2.1-2.2,3.5-3.3c0.8-0.6,0,1.8,0,1.8c0.1,0-2.3,2.7-2.2,2.7c0.3,0.2,1,0.4,1.6,0.3c0.4-0.1,0.4,0.3-0.5,1.2
			c-0.3,0.3-2.3,2-2.8,3.5c-0.9,3.1-1.9,5.6-2.2,6.5c-0.2,0.5,2,8.8,2.2,9c0,0,8.2,9.3,8.5,9.6c0.3,0.3,0.4,0,0.4-0.2
			c0.2-0.6,1.7-6.8,8.7-10.8c0.2-0.1,0.7,0.6,0.8,0.6c0.4,0.5,0.3,0.7,0.3,0.7c-1.3,3.7,0.2,11.9-1.1,13.5
			C30,70.8,23.7,74.2,23.3,72.5z"/>
		<path id="XMLID_3_" class="st0" d="M40.6,72.6c0,0-1.9,0-3.1,1.5l-0.8-0.7l-0.4-2.3L35.8,74c0,0-0.1,2.1,3.4,3.8
			c2.9,1.4,6.6,4.9,6,6.4c-0.6,1.5,2,2.6,2.2,2.7c0.2,0.1,0.3,0.1,0.5,0.1c0.2,0,0.4-1.5-0.3-1.5c-0.7-0.1-1.2-0.5-1.6-1.3
			c-0.4-0.9-0.8-4.1-4.3-6.3c-2-1.3-3.3-2.1-2.8-2.9c0,0,0.3-1.2,2.2-1.2c1.6,0,5.8,2.1,6.8,2.1c0,0,0.6-1.2,0-1.4
			C47.2,74.2,43.6,72.9,40.6,72.6z"/>
	</g>
</g>
</svg>
